<?xml version="1.0" encoding="UTF-8" standalone="no"?>
<svg
   xmlns:dc="http://purl.org/dc/elements/1.1/"
   xmlns:cc="http://creativecommons.org/ns#"
   xmlns:rdf="http://www.w3.org/1999/02/22-rdf-syntax-ns#"
   xmlns:svg="http://www.w3.org/2000/svg"
   xmlns="http://www.w3.org/2000/svg"
   xmlns:sodipodi="http://sodipodi.sourceforge.net/DTD/sodipodi-0.dtd"
   xmlns:inkscape="http://www.inkscape.org/namespaces/inkscape"
   width="16"
   height="16"
   version="1.1"
   id="svg4"
   sodipodi:docname="wifi-strength-5-lock.svg"
   inkscape:version="0.92.5 (2060ec1f9f, 2020-04-08)">
  <metadata
     id="metadata10">
    <rdf:RDF>
      <cc:Work
         rdf:about="">
        <dc:format>image/svg+xml</dc:format>
        <dc:type
           rdf:resource="http://purl.org/dc/dcmitype/StillImage" />
        <dc:title></dc:title>
      </cc:Work>
    </rdf:RDF>
  </metadata>
  <defs
     id="defs8" />
  <sodipodi:namedview
     pagecolor="#ffffff"
     bordercolor="#666666"
     borderopacity="1"
     objecttolerance="10"
     gridtolerance="10"
     guidetolerance="10"
     inkscape:pageopacity="0"
     inkscape:pageshadow="2"
     inkscape:window-width="1900"
     inkscape:window-height="1022"
     id="namedview6"
     showgrid="false"
     inkscape:zoom="29.5"
     inkscape:cx="6.2537419"
     inkscape:cy="6.825624"
     inkscape:window-x="8"
     inkscape:window-y="8"
     inkscape:window-maximized="0"
     inkscape:current-layer="svg4" />
  <path
     style="fill:#ffffff"
     d="M 8.1347656 2 L 8.1347656 4 L 13 4 L 13 11 L 11 11 L 10 12 L 6 12 L 5 11 L 3 11 L 3 7.9316406 L 1 7.9316406 L 1 12 C 1 13 2 13 2 13 L 4 13 L 5 14 L 11 14 L 12 13 L 14 13 C 14 13 15 13.13 15 12 L 15 3 C 15 2 14 2 14 2 L 8.1347656 2 z "
     id="path2" />
  <path
     style="fill:#ffffff;fill-opacity:1"
     d="M 4.1037473,0.33951271 A 2.2033899,2.3389831 0 0 0 3.0549192,0.65982521 2.2033899,2.3389831 0 0 0 1.9670286,2.7008408 L 3.0178099,2.6891221 A 1.1525425,1.2203389 0 0 1 3.2599973,1.9293565 1.1525425,1.2203389 0 0 1 4.5432005,1.5231065 1.1525425,1.2203389 0 0 1 5.3224973,2.6774033 H 6.3732786 A 2.2033899,2.3389831 0 0 0 5.2658567,0.64810651 2.2033899,2.3389831 0 0 0 4.1037473,0.33951271 Z M 3.0178099,2.6891221 a 1.1525425,1.2203389 0 0 0 0.1875,0.65625 L 4.1701536,2.6774033 Z"
     id="path927"
     inkscape:connector-curvature="0" />
  <rect
     style="fill:#ffffff;fill-opacity:1"
     id="rect949"
     width="5.8305087"
     height="4.2711864"
     x="1.2881356"
     y="2.6440678" />
</svg>
