<?xml version="1.0" encoding="UTF-8" standalone="no"?>
<svg
   xmlns:dc="http://purl.org/dc/elements/1.1/"
   xmlns:cc="http://creativecommons.org/ns#"
   xmlns:rdf="http://www.w3.org/1999/02/22-rdf-syntax-ns#"
   xmlns:svg="http://www.w3.org/2000/svg"
   xmlns="http://www.w3.org/2000/svg"
   xmlns:sodipodi="http://sodipodi.sourceforge.net/DTD/sodipodi-0.dtd"
   xmlns:inkscape="http://www.inkscape.org/namespaces/inkscape"
   inkscape:version="1.0 (4035a4fb49, 2020-05-01)"
   sodipodi:docname="eth-alert.svg"
   id="svg4"
   version="1.1"
   height="16"
   width="16">
  <metadata
     id="metadata10">
    <rdf:RDF>
      <cc:Work
         rdf:about="">
        <dc:format>image/svg+xml</dc:format>
        <dc:type
           rdf:resource="http://purl.org/dc/dcmitype/StillImage" />
      </cc:Work>
    </rdf:RDF>
  </metadata>
  <defs
     id="defs8" />
  <sodipodi:namedview
     inkscape:current-layer="svg4"
     inkscape:window-maximized="0"
     inkscape:window-y="8"
     inkscape:window-x="8"
     inkscape:cy="11.573815"
     inkscape:cx="13.102581"
     inkscape:zoom="74.188707"
     showgrid="false"
     id="namedview6"
     inkscape:window-height="1029"
     inkscape:window-width="1870"
     inkscape:pageshadow="2"
     inkscape:pageopacity="0"
     guidetolerance="10"
     gridtolerance="10"
     objecttolerance="10"
     borderopacity="1"
     bordercolor="#666666"
     pagecolor="#ffffff" />
  <path
     d="M 2 2 C 2 2 1 2 1 3 L 1 12 C 1 13 2 13 2 13 L 4 13 L 5 14 L 11 14 L 11.761719 13.238281 L 11.761719 11 L 11 11 L 10 12 L 6 12 L 5 11 L 3 11 L 3 4 L 13 4 L 13 7.484375 L 15 7.484375 L 15 3 C 15 2 14 2 14 2 L 2 2 z "
     style="fill:#cccccc"
     id="path2" />
  <rect
     y="13.208564"
     x="12.503509"
     height="1.9343338"
     width="2.0600178"
     id="rect18"
     style="fill:#ffffff;stroke-width:1.01651" />
  <rect
     style="fill:#ffffff;stroke-width:0.666173"
     id="rect18-3"
     width="1.6249021"
     height="4.1810608"
     x="12.695685"
     y="8.2526484" />
</svg>
