<?xml version="1.0" encoding="UTF-8" standalone="no"?>
<svg
   xmlns:dc="http://purl.org/dc/elements/1.1/"
   xmlns:cc="http://creativecommons.org/ns#"
   xmlns:rdf="http://www.w3.org/1999/02/22-rdf-syntax-ns#"
   xmlns:svg="http://www.w3.org/2000/svg"
   xmlns="http://www.w3.org/2000/svg"
   xmlns:sodipodi="http://sodipodi.sourceforge.net/DTD/sodipodi-0.dtd"
   xmlns:inkscape="http://www.inkscape.org/namespaces/inkscape"
   inkscape:version="1.0 (4035a4fb49, 2020-05-01)"
   sodipodi:docname="eth-off.svg"
   id="svg4"
   version="1.1"
   height="16"
   width="16">
  <metadata
     id="metadata10">
    <rdf:RDF>
      <cc:Work
         rdf:about="">
        <dc:format>image/svg+xml</dc:format>
        <dc:type
           rdf:resource="http://purl.org/dc/dcmitype/StillImage" />
      </cc:Work>
    </rdf:RDF>
  </metadata>
  <defs
     id="defs8" />
  <sodipodi:namedview
     inkscape:current-layer="svg4"
     inkscape:window-maximized="0"
     inkscape:window-y="8"
     inkscape:window-x="8"
     inkscape:cy="14.417116"
     inkscape:cx="27.904504"
     inkscape:zoom="22.432878"
     showgrid="false"
     id="namedview6"
     inkscape:window-height="1029"
     inkscape:window-width="1870"
     inkscape:pageshadow="2"
     inkscape:pageopacity="0"
     guidetolerance="10"
     gridtolerance="10"
     objecttolerance="10"
     borderopacity="1"
     bordercolor="#666666"
     pagecolor="#ffffff" />
  <path
     d="M 2 2 C 2 2 1 2 1 3 L 1 12 C 1 13 2 13 2 13 L 2.7441406 13 L 4.4296875 11 L 3 11 L 3 4 L 10.326172 4 L 12.011719 2 L 2 2 z M 15 3.1152344 L 13 5.4902344 L 13 11 L 11 11 L 10 12 L 7.515625 12 L 5.8320312 14 L 11 14 L 12 13 L 14 13 C 14 13 15 13.13 15 12 L 15 3.1152344 z "
     style="fill:#ffffff"
     id="path2" />
  <rect
     transform="rotate(40.111305)"
     y="-8.3684845"
     x="9.9198399"
     height="18.783297"
     width="1.7932206"
     id="rect12-3-6"
     style="fill:#ffffff" />
</svg>
