<?xml version="1.0" encoding="UTF-8" standalone="no"?>
<svg
   xmlns:dc="http://purl.org/dc/elements/1.1/"
   xmlns:cc="http://creativecommons.org/ns#"
   xmlns:rdf="http://www.w3.org/1999/02/22-rdf-syntax-ns#"
   xmlns:svg="http://www.w3.org/2000/svg"
   xmlns="http://www.w3.org/2000/svg"
   xmlns:sodipodi="http://sodipodi.sourceforge.net/DTD/sodipodi-0.dtd"
   xmlns:inkscape="http://www.inkscape.org/namespaces/inkscape"
   width="240"
   height="240"
   version="1.1"
   id="svg4"
   sodipodi:docname="network-vpn-off-symbolic.svg"
   inkscape:version="0.92.5 (2060ec1f9f, 2020-04-08)">
  <metadata
     id="metadata10">
    <rdf:RDF>
      <cc:Work
         rdf:about="">
        <dc:format>image/svg+xml</dc:format>
        <dc:type
           rdf:resource="http://purl.org/dc/dcmitype/StillImage" />
      </cc:Work>
    </rdf:RDF>
  </metadata>
  <defs
     id="defs8" />
  <sodipodi:namedview
     pagecolor="#ffffff"
     bordercolor="#666666"
     borderopacity="1"
     objecttolerance="10"
     gridtolerance="10"
     guidetolerance="10"
     inkscape:pageopacity="0"
     inkscape:pageshadow="2"
     inkscape:window-width="1900"
     inkscape:window-height="1022"
     id="namedview6"
     showgrid="false"
     inkscape:zoom="0.72696429"
     inkscape:cx="567.54224"
     inkscape:cy="-182.73061"
     inkscape:window-x="8"
     inkscape:window-y="8"
     inkscape:window-maximized="0"
     inkscape:current-layer="svg4" />
  <path
     style="fill:#ffffff;stroke-width:15.0554533"
     d="M 67.5 54.966797 C 30.3 54.966797 0 85.340132 0 122.9668 C 0 159.6051 28.731793 189.35239 64.585938 190.89062 L 148.17969 100.29883 L 131.09961 100.29883 C 121.49961 73.09883 96.15 54.966797 67.5 54.966797 z M 67.5 100.29883 C 79.95 100.29883 90 110.42458 90 122.9668 C 90 135.50902 79.95 145.63281 67.5 145.63281 C 55.05 145.63281 45 135.50902 45 122.9668 C 45 110.42458 55.05 100.29883 67.5 100.29883 z M 190.29297 100.29883 L 148.46094 145.63281 L 180 145.63281 L 180 175.85547 L 225 175.85547 L 225 145.63281 L 240 145.63281 L 240 100.29883 L 190.29297 100.29883 z "
     id="path2" />
  <rect
     style="opacity:1;fill:#ffffff;fill-opacity:1;stroke-width:1.03260112"
     id="rect816-3"
     width="30.950634"
     height="571.55499"
     x="147.61185"
     y="-268.24136"
     transform="rotate(42.699254)"
     inkscape:transform-center-x="11.004667"
     inkscape:transform-center-y="-123.80251" />
</svg>
