<?xml version="1.0" encoding="UTF-8" standalone="no"?>
<svg
   xmlns:dc="http://purl.org/dc/elements/1.1/"
   xmlns:cc="http://creativecommons.org/ns#"
   xmlns:rdf="http://www.w3.org/1999/02/22-rdf-syntax-ns#"
   xmlns:svg="http://www.w3.org/2000/svg"
   xmlns="http://www.w3.org/2000/svg"
   xmlns:sodipodi="http://sodipodi.sourceforge.net/DTD/sodipodi-0.dtd"
   xmlns:inkscape="http://www.inkscape.org/namespaces/inkscape"
   width="240"
   height="240"
   version="1.1"
   id="svg4"
   sodipodi:docname="network-vpn-symbolic.svg"
   inkscape:version="0.92.5 (2060ec1f9f, 2020-04-08)">
  <metadata
     id="metadata10">
    <rdf:RDF>
      <cc:Work
         rdf:about="">
        <dc:format>image/svg+xml</dc:format>
        <dc:type
           rdf:resource="http://purl.org/dc/dcmitype/StillImage" />
      </cc:Work>
    </rdf:RDF>
  </metadata>
  <defs
     id="defs8" />
  <sodipodi:namedview
     pagecolor="#ffffff"
     bordercolor="#666666"
     borderopacity="1"
     objecttolerance="10"
     gridtolerance="10"
     guidetolerance="10"
     inkscape:pageopacity="0"
     inkscape:pageshadow="2"
     inkscape:window-width="1900"
     inkscape:window-height="1022"
     id="namedview6"
     showgrid="false"
     inkscape:zoom="0.98333333"
     inkscape:cx="120"
     inkscape:cy="120"
     inkscape:window-x="8"
     inkscape:window-y="8"
     inkscape:window-maximized="0"
     inkscape:current-layer="svg4" />
  <path
     style="fill:#ffffff;stroke-width:15.0554533"
     d="m 67.5,54.966102 c -37.2,0 -67.5,30.373333 -67.5,67.999998 0,37.62667 30.3,68 67.5,68 28.65,0 54,-18.13333 63.6,-45.33333 H 180 v 30.22222 h 45 v -30.22222 h 15 V 100.29943 H 131.1 C 121.5,73.099432 96.15,54.966102 67.5,54.966102 Z m 0,45.333328 c 12.45,0 22.5,10.12445 22.5,22.66667 0,12.54222 -10.05,22.66667 -22.5,22.66667 -12.45,0 -22.5,-10.12445 -22.5,-22.66667 0,-12.54222 10.05,-22.66667 22.5,-22.66667 z"
     id="path2"
     inkscape:connector-curvature="0" />
</svg>
