<?xml version="1.0" encoding="UTF-8" standalone="no"?>
<svg
   xmlns:dc="http://purl.org/dc/elements/1.1/"
   xmlns:cc="http://creativecommons.org/ns#"
   xmlns:rdf="http://www.w3.org/1999/02/22-rdf-syntax-ns#"
   xmlns:svg="http://www.w3.org/2000/svg"
   xmlns="http://www.w3.org/2000/svg"
   xmlns:sodipodi="http://sodipodi.sourceforge.net/DTD/sodipodi-0.dtd"
   xmlns:inkscape="http://www.inkscape.org/namespaces/inkscape"
   version="1.1"
   width="240"
   height="240"
   viewBox="0 0 240 240"
   id="svg4"
   sodipodi:docname="clock_alt.svg"
   inkscape:version="1.0 (4035a4fb49, 2020-05-01)">
  <metadata
     id="metadata10">
    <rdf:RDF>
      <cc:Work
         rdf:about="">
        <dc:format>image/svg+xml</dc:format>
        <dc:type
           rdf:resource="http://purl.org/dc/dcmitype/StillImage" />
        <dc:title />
      </cc:Work>
    </rdf:RDF>
  </metadata>
  <defs
     id="defs8" />
  <sodipodi:namedview
     pagecolor="#ffffff"
     bordercolor="#666666"
     borderopacity="1"
     objecttolerance="10"
     gridtolerance="10"
     guidetolerance="10"
     inkscape:pageopacity="0"
     inkscape:pageshadow="2"
     inkscape:window-width="1870"
     inkscape:window-height="1029"
     id="namedview6"
     showgrid="false"
     inkscape:pagecheckerboard="true"
     inkscape:zoom="1.5014076"
     inkscape:cx="270.98277"
     inkscape:cy="22.868726"
     inkscape:window-x="8"
     inkscape:window-y="8"
     inkscape:window-maximized="0"
     inkscape:current-layer="svg4"
     inkscape:document-rotation="0" />
  <path
     d="M 119.12305 11.375 A 110 110 0 0 0 9.1230469 121.375 A 110 110 0 0 0 119.12305 231.375 A 110 110 0 0 0 229.12305 121.375 A 110 110 0 0 0 119.12305 11.375 z M 118.33398 28.208984 A 95 95 0 0 1 118.39258 28.208984 A 95 95 0 0 1 213.39258 123.20898 A 95 95 0 0 1 118.39258 218.20898 A 95 95 0 0 1 23.392578 123.20898 A 95 95 0 0 1 118.33398 28.208984 z "
     style="fill:#ffffff;stroke-width:0.977181"
     id="path7" />
  <rect
     y="16.096617"
     x="110.88097"
     height="111.56813"
     width="12.936743"
     id="rect65"
     style="fill:#ffffff;stroke-width:1.25071" />
  <rect
     transform="rotate(130.37673)"
     style="fill:#ffffff;stroke-width:1.25071"
     id="rect65-7"
     width="12.936743"
     height="111.56813"
     x="12.488586"
     y="-278.73999" />
</svg>
